G04 EAGLE Gerber RS-274X export*
G75*
%MOMM*%
%FSLAX34Y34*%
%LPD*%
%INTop Copper*%
%IPPOS*%
%AMOC8*
5,1,8,0,0,1.08239X$1,22.5*%
G01*
%ADD10P,1.732040X8X22.500000*%
%ADD11C,1.600200*%
%ADD12C,1.320800*%
%ADD13C,1.524000*%
%ADD14P,1.429621X8X292.500000*%
%ADD15P,1.429621X8X202.500000*%
%ADD16P,1.429621X8X67.500000*%
%ADD17P,1.429621X8X22.500000*%
%ADD18R,1.508000X1.508000*%
%ADD19C,1.508000*%
%ADD20R,1.524000X1.524000*%
%ADD21C,1.524000*%
%ADD22C,1.700000*%
%ADD23P,1.429621X8X112.500000*%
%ADD24P,1.732040X8X247.500000*%
%ADD25C,2.540000*%
%ADD26C,1.400000*%
%ADD27C,2.000000*%
%ADD28P,1.429621X8X247.500000*%
%ADD29P,2.749271X8X202.500000*%
%ADD30P,3.409096X8X67.500000*%
%ADD31C,3.149600*%
%ADD32P,2.749271X8X292.500000*%
%ADD33C,1.676400*%
%ADD34C,0.508000*%
%ADD35C,1.700000*%
%ADD36C,1.270000*%
%ADD37C,2.000000*%
%ADD38C,0.152400*%

G36*
X892035Y303464D02*
X892035Y303464D01*
X892069Y303462D01*
X892258Y303484D01*
X892449Y303501D01*
X892482Y303510D01*
X892516Y303514D01*
X892699Y303569D01*
X892883Y303619D01*
X892914Y303634D01*
X892947Y303644D01*
X893118Y303731D01*
X893290Y303813D01*
X893318Y303833D01*
X893349Y303848D01*
X893501Y303964D01*
X893656Y304075D01*
X893680Y304100D01*
X893707Y304120D01*
X893836Y304261D01*
X893970Y304397D01*
X893989Y304426D01*
X894013Y304452D01*
X894115Y304613D01*
X894222Y304770D01*
X894236Y304802D01*
X894254Y304831D01*
X894327Y305008D01*
X894404Y305182D01*
X894412Y305216D01*
X894425Y305248D01*
X894465Y305435D01*
X894511Y305620D01*
X894513Y305654D01*
X894520Y305688D01*
X894539Y306000D01*
X894539Y468000D01*
X894525Y468164D01*
X894518Y468328D01*
X894505Y468388D01*
X894499Y468449D01*
X894456Y468607D01*
X894420Y468768D01*
X894397Y468824D01*
X894381Y468883D01*
X894310Y469031D01*
X894247Y469183D01*
X894214Y469235D01*
X894187Y469290D01*
X894092Y469423D01*
X894002Y469561D01*
X893951Y469619D01*
X893925Y469656D01*
X893882Y469698D01*
X893796Y469796D01*
X871796Y491796D01*
X871669Y491901D01*
X871548Y492013D01*
X871497Y492045D01*
X871450Y492084D01*
X871307Y492166D01*
X871169Y492254D01*
X871112Y492278D01*
X871059Y492308D01*
X870904Y492363D01*
X870752Y492425D01*
X870692Y492438D01*
X870635Y492459D01*
X870473Y492485D01*
X870312Y492520D01*
X870235Y492525D01*
X870191Y492532D01*
X870130Y492531D01*
X870000Y492539D01*
X756424Y492539D01*
X756294Y492528D01*
X756164Y492526D01*
X756070Y492508D01*
X755975Y492499D01*
X755850Y492465D01*
X755722Y492440D01*
X755633Y492406D01*
X755541Y492381D01*
X755424Y492325D01*
X755302Y492278D01*
X755220Y492228D01*
X755134Y492187D01*
X755029Y492112D01*
X754917Y492044D01*
X754846Y491981D01*
X754768Y491925D01*
X754677Y491832D01*
X754580Y491746D01*
X754521Y491671D01*
X754454Y491603D01*
X754381Y491495D01*
X754301Y491393D01*
X754255Y491309D01*
X754202Y491230D01*
X754149Y491111D01*
X754088Y490996D01*
X754058Y490905D01*
X754020Y490818D01*
X753989Y490691D01*
X753949Y490568D01*
X753936Y490473D01*
X753913Y490380D01*
X753905Y490251D01*
X753887Y490122D01*
X753891Y490026D01*
X753885Y489931D01*
X753900Y489802D01*
X753906Y489672D01*
X753926Y489579D01*
X753937Y489484D01*
X753975Y489359D01*
X754003Y489232D01*
X754040Y489144D01*
X754068Y489053D01*
X754127Y488937D01*
X754177Y488817D01*
X754229Y488736D01*
X754272Y488651D01*
X754351Y488548D01*
X754421Y488439D01*
X754507Y488341D01*
X754544Y488293D01*
X754577Y488262D01*
X754628Y488204D01*
X758145Y484688D01*
X758145Y483439D01*
X751539Y483439D01*
X751539Y490000D01*
X751536Y490035D01*
X751538Y490069D01*
X751516Y490258D01*
X751499Y490449D01*
X751490Y490482D01*
X751486Y490516D01*
X751431Y490699D01*
X751381Y490883D01*
X751366Y490914D01*
X751356Y490947D01*
X751269Y491118D01*
X751188Y491290D01*
X751167Y491318D01*
X751152Y491349D01*
X751036Y491501D01*
X750925Y491656D01*
X750901Y491680D01*
X750880Y491707D01*
X750740Y491836D01*
X750603Y491970D01*
X750574Y491989D01*
X750549Y492013D01*
X750388Y492115D01*
X750230Y492222D01*
X750198Y492236D01*
X750169Y492254D01*
X749992Y492327D01*
X749818Y492404D01*
X749784Y492412D01*
X749752Y492425D01*
X749566Y492465D01*
X749380Y492511D01*
X749346Y492513D01*
X749312Y492520D01*
X749000Y492539D01*
X748965Y492536D01*
X748931Y492538D01*
X748741Y492516D01*
X748551Y492499D01*
X748518Y492490D01*
X748484Y492486D01*
X748301Y492431D01*
X748117Y492381D01*
X748086Y492366D01*
X748053Y492356D01*
X747882Y492269D01*
X747710Y492187D01*
X747682Y492167D01*
X747651Y492152D01*
X747499Y492036D01*
X747344Y491925D01*
X747320Y491900D01*
X747292Y491880D01*
X747163Y491740D01*
X747030Y491603D01*
X747011Y491574D01*
X746987Y491548D01*
X746885Y491387D01*
X746778Y491230D01*
X746764Y491198D01*
X746745Y491169D01*
X746673Y490992D01*
X746596Y490818D01*
X746588Y490784D01*
X746575Y490752D01*
X746534Y490565D01*
X746489Y490380D01*
X746487Y490346D01*
X746480Y490312D01*
X746461Y490000D01*
X746461Y480900D01*
X746461Y471755D01*
X745212Y471755D01*
X739796Y477172D01*
X739696Y477255D01*
X739603Y477346D01*
X739523Y477400D01*
X739450Y477461D01*
X739337Y477525D01*
X739230Y477598D01*
X739142Y477637D01*
X739059Y477684D01*
X738937Y477728D01*
X738818Y477780D01*
X738725Y477803D01*
X738635Y477835D01*
X738507Y477856D01*
X738380Y477887D01*
X738285Y477893D01*
X738191Y477908D01*
X738061Y477907D01*
X737931Y477915D01*
X737836Y477904D01*
X737741Y477902D01*
X737613Y477878D01*
X737484Y477863D01*
X737392Y477835D01*
X737298Y477817D01*
X737177Y477770D01*
X737053Y477732D01*
X736968Y477689D01*
X736878Y477654D01*
X736767Y477587D01*
X736651Y477528D01*
X736575Y477470D01*
X736494Y477421D01*
X736396Y477334D01*
X736293Y477256D01*
X736228Y477186D01*
X736156Y477122D01*
X736076Y477020D01*
X735988Y476925D01*
X735936Y476844D01*
X735877Y476769D01*
X735816Y476655D01*
X735746Y476545D01*
X735709Y476457D01*
X735664Y476372D01*
X735624Y476249D01*
X735575Y476128D01*
X735555Y476035D01*
X735525Y475944D01*
X735507Y475816D01*
X735480Y475688D01*
X735472Y475559D01*
X735464Y475498D01*
X735466Y475453D01*
X735461Y475376D01*
X735461Y455000D01*
X735475Y454836D01*
X735482Y454672D01*
X735495Y454612D01*
X735501Y454552D01*
X735544Y454393D01*
X735580Y454232D01*
X735603Y454176D01*
X735619Y454117D01*
X735690Y453969D01*
X735753Y453817D01*
X735786Y453765D01*
X735813Y453711D01*
X735908Y453577D01*
X735998Y453439D01*
X736049Y453381D01*
X736075Y453344D01*
X736118Y453302D01*
X736204Y453204D01*
X845461Y343948D01*
X845461Y329052D01*
X838672Y322263D01*
X838597Y322230D01*
X838560Y322206D01*
X838521Y322187D01*
X838373Y322082D01*
X838222Y321981D01*
X838191Y321951D01*
X838155Y321925D01*
X838028Y321795D01*
X837897Y321669D01*
X837872Y321634D01*
X837841Y321603D01*
X837739Y321452D01*
X837632Y321305D01*
X837613Y321266D01*
X837589Y321230D01*
X837515Y321063D01*
X837436Y320900D01*
X837424Y320858D01*
X837407Y320818D01*
X837364Y320641D01*
X837315Y320466D01*
X837310Y320423D01*
X837300Y320380D01*
X837289Y320199D01*
X837271Y320018D01*
X837275Y319974D01*
X837272Y319931D01*
X837293Y319750D01*
X837308Y319569D01*
X837319Y319527D01*
X837324Y319484D01*
X837377Y319309D01*
X837424Y319134D01*
X837445Y319085D01*
X837455Y319053D01*
X837483Y318997D01*
X837548Y318847D01*
X838336Y317300D01*
X838779Y315939D01*
X821300Y315939D01*
X821266Y315936D01*
X821231Y315938D01*
X821042Y315916D01*
X820852Y315899D01*
X820818Y315890D01*
X820784Y315886D01*
X820601Y315831D01*
X820417Y315781D01*
X820386Y315766D01*
X820353Y315756D01*
X820182Y315669D01*
X820011Y315588D01*
X819983Y315567D01*
X819952Y315552D01*
X819800Y315436D01*
X819645Y315325D01*
X819621Y315301D01*
X819593Y315280D01*
X819464Y315140D01*
X819331Y315003D01*
X819311Y314974D01*
X819288Y314949D01*
X819185Y314788D01*
X819079Y314630D01*
X819065Y314598D01*
X819046Y314569D01*
X818974Y314392D01*
X818896Y314218D01*
X818888Y314184D01*
X818875Y314152D01*
X818835Y313966D01*
X818790Y313780D01*
X818788Y313746D01*
X818780Y313712D01*
X818761Y313400D01*
X818764Y313365D01*
X818762Y313331D01*
X818784Y313141D01*
X818801Y312951D01*
X818810Y312918D01*
X818814Y312884D01*
X818869Y312701D01*
X818920Y312517D01*
X818934Y312486D01*
X818944Y312453D01*
X819031Y312282D01*
X819113Y312110D01*
X819133Y312082D01*
X819149Y312051D01*
X819264Y311899D01*
X819375Y311744D01*
X819400Y311720D01*
X819421Y311692D01*
X819561Y311563D01*
X819698Y311430D01*
X819726Y311411D01*
X819752Y311387D01*
X819913Y311285D01*
X820071Y311178D01*
X820102Y311164D01*
X820132Y311145D01*
X820308Y311073D01*
X820483Y310996D01*
X820516Y310988D01*
X820548Y310975D01*
X820735Y310934D01*
X820920Y310889D01*
X820954Y310887D01*
X820988Y310880D01*
X821300Y310861D01*
X838779Y310861D01*
X838336Y309500D01*
X837610Y308075D01*
X837187Y307493D01*
X837107Y307359D01*
X837020Y307230D01*
X836992Y307166D01*
X836956Y307106D01*
X836901Y306960D01*
X836838Y306818D01*
X836821Y306750D01*
X836797Y306685D01*
X836768Y306532D01*
X836731Y306380D01*
X836727Y306311D01*
X836714Y306243D01*
X836713Y306087D01*
X836703Y305931D01*
X836711Y305862D01*
X836711Y305792D01*
X836737Y305639D01*
X836755Y305484D01*
X836776Y305417D01*
X836787Y305349D01*
X836841Y305202D01*
X836886Y305053D01*
X836917Y304991D01*
X836941Y304925D01*
X837019Y304791D01*
X837090Y304651D01*
X837132Y304596D01*
X837167Y304536D01*
X837268Y304417D01*
X837362Y304293D01*
X837413Y304245D01*
X837458Y304193D01*
X837578Y304093D01*
X837693Y303988D01*
X837752Y303950D01*
X837805Y303906D01*
X837941Y303829D01*
X838073Y303746D01*
X838137Y303719D01*
X838198Y303685D01*
X838345Y303634D01*
X838490Y303575D01*
X838558Y303560D01*
X838623Y303537D01*
X838777Y303513D01*
X838930Y303480D01*
X839019Y303474D01*
X839068Y303467D01*
X839126Y303468D01*
X839242Y303461D01*
X892000Y303461D01*
X892035Y303464D01*
G37*
G36*
X240035Y601464D02*
X240035Y601464D01*
X240069Y601462D01*
X240258Y601484D01*
X240449Y601501D01*
X240482Y601510D01*
X240516Y601514D01*
X240699Y601569D01*
X240883Y601619D01*
X240914Y601634D01*
X240947Y601644D01*
X241118Y601731D01*
X241290Y601813D01*
X241318Y601833D01*
X241349Y601848D01*
X241501Y601964D01*
X241656Y602075D01*
X241680Y602100D01*
X241707Y602120D01*
X241836Y602261D01*
X241970Y602397D01*
X241989Y602426D01*
X242013Y602452D01*
X242115Y602613D01*
X242222Y602770D01*
X242236Y602802D01*
X242254Y602831D01*
X242327Y603008D01*
X242404Y603182D01*
X242412Y603216D01*
X242425Y603248D01*
X242465Y603435D01*
X242511Y603620D01*
X242513Y603654D01*
X242520Y603688D01*
X242539Y604000D01*
X242539Y643461D01*
X317461Y643461D01*
X317461Y620000D01*
X317464Y619966D01*
X317462Y619931D01*
X317484Y619742D01*
X317501Y619552D01*
X317510Y619518D01*
X317514Y619484D01*
X317569Y619301D01*
X317619Y619117D01*
X317634Y619086D01*
X317644Y619053D01*
X317731Y618882D01*
X317813Y618711D01*
X317833Y618682D01*
X317848Y618651D01*
X317964Y618499D01*
X318075Y618344D01*
X318100Y618320D01*
X318120Y618293D01*
X318261Y618164D01*
X318397Y618030D01*
X318426Y618011D01*
X318452Y617988D01*
X318613Y617885D01*
X318770Y617778D01*
X318802Y617764D01*
X318831Y617746D01*
X319008Y617673D01*
X319182Y617596D01*
X319216Y617588D01*
X319248Y617575D01*
X319435Y617535D01*
X319620Y617489D01*
X319654Y617487D01*
X319688Y617480D01*
X320000Y617461D01*
X365056Y617461D01*
X365238Y617477D01*
X365419Y617487D01*
X365462Y617497D01*
X365505Y617501D01*
X365680Y617549D01*
X365857Y617590D01*
X365897Y617608D01*
X365939Y617619D01*
X366103Y617697D01*
X366270Y617770D01*
X366307Y617794D01*
X366346Y617813D01*
X366493Y617918D01*
X366645Y618019D01*
X366677Y618049D01*
X366712Y618075D01*
X366839Y618205D01*
X366970Y618331D01*
X366996Y618366D01*
X367026Y618397D01*
X367128Y618548D01*
X367235Y618695D01*
X367254Y618734D01*
X367278Y618770D01*
X367352Y618937D01*
X367431Y619100D01*
X367443Y619142D01*
X367460Y619182D01*
X367504Y619359D01*
X367553Y619534D01*
X367557Y619577D01*
X367567Y619620D01*
X367578Y619801D01*
X367596Y619982D01*
X367592Y620026D01*
X367595Y620069D01*
X367574Y620250D01*
X367559Y620431D01*
X367548Y620473D01*
X367543Y620516D01*
X367490Y620691D01*
X367443Y620866D01*
X367422Y620915D01*
X367412Y620947D01*
X367384Y621004D01*
X367319Y621153D01*
X366684Y622400D01*
X366241Y623761D01*
X376100Y623761D01*
X385959Y623761D01*
X385516Y622400D01*
X384881Y621153D01*
X384813Y620984D01*
X384740Y620818D01*
X384729Y620776D01*
X384713Y620735D01*
X384676Y620557D01*
X384633Y620380D01*
X384630Y620337D01*
X384621Y620294D01*
X384616Y620112D01*
X384605Y619931D01*
X384610Y619888D01*
X384609Y619844D01*
X384636Y619664D01*
X384657Y619484D01*
X384670Y619442D01*
X384676Y619399D01*
X384735Y619227D01*
X384788Y619053D01*
X384807Y619014D01*
X384821Y618973D01*
X384910Y618813D01*
X384992Y618651D01*
X385018Y618617D01*
X385039Y618579D01*
X385154Y618437D01*
X385264Y618293D01*
X385296Y618263D01*
X385323Y618229D01*
X385461Y618111D01*
X385595Y617988D01*
X385632Y617964D01*
X385665Y617936D01*
X385821Y617843D01*
X385975Y617746D01*
X386015Y617729D01*
X386053Y617707D01*
X386223Y617644D01*
X386391Y617575D01*
X386434Y617566D01*
X386475Y617550D01*
X386654Y617518D01*
X386832Y617480D01*
X386885Y617477D01*
X386918Y617471D01*
X386981Y617471D01*
X387144Y617461D01*
X390000Y617461D01*
X390035Y617464D01*
X390069Y617462D01*
X390258Y617484D01*
X390449Y617501D01*
X390482Y617510D01*
X390516Y617514D01*
X390699Y617569D01*
X390883Y617619D01*
X390914Y617634D01*
X390947Y617644D01*
X391118Y617731D01*
X391290Y617813D01*
X391318Y617833D01*
X391349Y617848D01*
X391501Y617964D01*
X391656Y618075D01*
X391680Y618100D01*
X391707Y618120D01*
X391836Y618261D01*
X391970Y618397D01*
X391989Y618426D01*
X392013Y618452D01*
X392115Y618613D01*
X392222Y618770D01*
X392236Y618802D01*
X392254Y618831D01*
X392327Y619008D01*
X392404Y619182D01*
X392412Y619216D01*
X392425Y619248D01*
X392465Y619435D01*
X392511Y619620D01*
X392513Y619654D01*
X392520Y619688D01*
X392539Y620000D01*
X392539Y626721D01*
X392525Y626885D01*
X392518Y627049D01*
X392505Y627109D01*
X392499Y627170D01*
X392456Y627328D01*
X392420Y627489D01*
X392397Y627545D01*
X392381Y627604D01*
X392310Y627752D01*
X392247Y627904D01*
X392214Y627955D01*
X392187Y628011D01*
X392092Y628144D01*
X392002Y628283D01*
X391951Y628340D01*
X391925Y628377D01*
X391882Y628419D01*
X391796Y628517D01*
X391331Y628981D01*
X391331Y637819D01*
X391796Y638283D01*
X391901Y638409D01*
X392013Y638530D01*
X392045Y638582D01*
X392084Y638629D01*
X392166Y638771D01*
X392254Y638910D01*
X392278Y638967D01*
X392308Y639020D01*
X392363Y639175D01*
X392425Y639327D01*
X392438Y639387D01*
X392459Y639444D01*
X392485Y639606D01*
X392520Y639767D01*
X392525Y639844D01*
X392532Y639888D01*
X392531Y639949D01*
X392539Y640079D01*
X392539Y682380D01*
X392536Y682415D01*
X392538Y682449D01*
X392516Y682638D01*
X392499Y682829D01*
X392490Y682862D01*
X392486Y682896D01*
X392431Y683079D01*
X392381Y683263D01*
X392366Y683294D01*
X392356Y683327D01*
X392269Y683498D01*
X392187Y683670D01*
X392167Y683698D01*
X392152Y683729D01*
X392036Y683881D01*
X391925Y684036D01*
X391900Y684060D01*
X391880Y684087D01*
X391740Y684216D01*
X391603Y684350D01*
X391574Y684369D01*
X391548Y684393D01*
X391387Y684495D01*
X391230Y684602D01*
X391198Y684616D01*
X391169Y684634D01*
X390992Y684707D01*
X390818Y684784D01*
X390784Y684792D01*
X390752Y684805D01*
X390565Y684845D01*
X390380Y684891D01*
X390346Y684893D01*
X390312Y684900D01*
X390000Y684919D01*
X283834Y684919D01*
X283704Y684908D01*
X283574Y684906D01*
X283480Y684888D01*
X283385Y684879D01*
X283259Y684845D01*
X283132Y684820D01*
X283043Y684786D01*
X282951Y684761D01*
X282833Y684705D01*
X282712Y684658D01*
X282630Y684608D01*
X282544Y684567D01*
X282438Y684492D01*
X282327Y684424D01*
X282256Y684361D01*
X282178Y684305D01*
X282087Y684212D01*
X281990Y684126D01*
X281931Y684051D01*
X281864Y683983D01*
X281791Y683875D01*
X281710Y683773D01*
X281665Y683689D01*
X281612Y683610D01*
X281559Y683491D01*
X281498Y683376D01*
X281468Y683285D01*
X281430Y683198D01*
X281399Y683071D01*
X281359Y682948D01*
X281346Y682853D01*
X281323Y682760D01*
X281315Y682631D01*
X281297Y682502D01*
X281301Y682406D01*
X281295Y682311D01*
X281310Y682182D01*
X281316Y682052D01*
X281336Y681959D01*
X281347Y681864D01*
X281385Y681739D01*
X281413Y681612D01*
X281450Y681524D01*
X281478Y681433D01*
X281537Y681317D01*
X281587Y681197D01*
X281639Y681117D01*
X281682Y681031D01*
X281761Y680928D01*
X281831Y680819D01*
X281835Y680815D01*
X281835Y679539D01*
X272690Y679539D01*
X263545Y679539D01*
X263545Y680821D01*
X263570Y680857D01*
X263631Y680930D01*
X263695Y681043D01*
X263768Y681150D01*
X263807Y681238D01*
X263854Y681321D01*
X263898Y681443D01*
X263950Y681562D01*
X263973Y681655D01*
X264005Y681745D01*
X264026Y681873D01*
X264057Y682000D01*
X264063Y682095D01*
X264078Y682189D01*
X264077Y682319D01*
X264085Y682449D01*
X264074Y682544D01*
X264072Y682639D01*
X264048Y682767D01*
X264033Y682896D01*
X264005Y682988D01*
X263987Y683082D01*
X263940Y683203D01*
X263902Y683327D01*
X263859Y683412D01*
X263825Y683502D01*
X263757Y683613D01*
X263698Y683729D01*
X263640Y683805D01*
X263591Y683886D01*
X263504Y683984D01*
X263426Y684087D01*
X263356Y684152D01*
X263292Y684224D01*
X263190Y684304D01*
X263095Y684393D01*
X263014Y684444D01*
X262939Y684503D01*
X262825Y684564D01*
X262715Y684634D01*
X262627Y684671D01*
X262542Y684716D01*
X262419Y684756D01*
X262298Y684805D01*
X262205Y684825D01*
X262114Y684855D01*
X261986Y684873D01*
X261858Y684900D01*
X261728Y684908D01*
X261668Y684916D01*
X261624Y684915D01*
X261546Y684919D01*
X160000Y684919D01*
X159966Y684916D01*
X159931Y684918D01*
X159742Y684896D01*
X159552Y684879D01*
X159518Y684870D01*
X159484Y684866D01*
X159301Y684811D01*
X159117Y684761D01*
X159086Y684746D01*
X159053Y684736D01*
X158882Y684649D01*
X158711Y684567D01*
X158682Y684547D01*
X158651Y684532D01*
X158499Y684416D01*
X158344Y684305D01*
X158320Y684280D01*
X158293Y684260D01*
X158164Y684120D01*
X158030Y683983D01*
X158011Y683954D01*
X157988Y683928D01*
X157885Y683767D01*
X157778Y683610D01*
X157764Y683578D01*
X157746Y683549D01*
X157673Y683372D01*
X157596Y683198D01*
X157588Y683164D01*
X157575Y683132D01*
X157535Y682945D01*
X157489Y682760D01*
X157487Y682726D01*
X157480Y682692D01*
X157461Y682380D01*
X157461Y604000D01*
X157464Y603966D01*
X157462Y603931D01*
X157484Y603742D01*
X157501Y603552D01*
X157510Y603518D01*
X157514Y603484D01*
X157569Y603301D01*
X157619Y603117D01*
X157634Y603086D01*
X157644Y603053D01*
X157731Y602882D01*
X157813Y602711D01*
X157833Y602682D01*
X157848Y602651D01*
X157964Y602499D01*
X158075Y602344D01*
X158100Y602320D01*
X158120Y602293D01*
X158261Y602164D01*
X158397Y602030D01*
X158426Y602011D01*
X158452Y601988D01*
X158613Y601885D01*
X158770Y601778D01*
X158802Y601764D01*
X158831Y601746D01*
X159008Y601673D01*
X159182Y601596D01*
X159216Y601588D01*
X159248Y601575D01*
X159435Y601535D01*
X159620Y601489D01*
X159654Y601487D01*
X159688Y601480D01*
X160000Y601461D01*
X240000Y601461D01*
X240035Y601464D01*
G37*
G36*
X850164Y587475D02*
X850164Y587475D01*
X850328Y587482D01*
X850388Y587495D01*
X850449Y587501D01*
X850607Y587544D01*
X850768Y587580D01*
X850824Y587603D01*
X850883Y587619D01*
X851031Y587690D01*
X851183Y587753D01*
X851235Y587786D01*
X851290Y587813D01*
X851423Y587908D01*
X851561Y587998D01*
X851619Y588049D01*
X851656Y588075D01*
X851698Y588118D01*
X851796Y588204D01*
X871796Y608204D01*
X871901Y608331D01*
X872013Y608452D01*
X872045Y608503D01*
X872084Y608550D01*
X872166Y608693D01*
X872254Y608831D01*
X872278Y608888D01*
X872308Y608941D01*
X872363Y609096D01*
X872425Y609248D01*
X872438Y609308D01*
X872459Y609365D01*
X872485Y609527D01*
X872520Y609688D01*
X872525Y609765D01*
X872532Y609809D01*
X872531Y609870D01*
X872539Y610000D01*
X872539Y641880D01*
X872536Y641915D01*
X872538Y641949D01*
X872516Y642138D01*
X872499Y642329D01*
X872490Y642362D01*
X872486Y642396D01*
X872431Y642579D01*
X872381Y642763D01*
X872366Y642794D01*
X872356Y642827D01*
X872269Y642998D01*
X872187Y643170D01*
X872167Y643198D01*
X872152Y643229D01*
X872036Y643381D01*
X871925Y643536D01*
X871900Y643560D01*
X871880Y643587D01*
X871740Y643716D01*
X871603Y643850D01*
X871574Y643869D01*
X871548Y643893D01*
X871387Y643995D01*
X871230Y644102D01*
X871198Y644116D01*
X871169Y644134D01*
X870992Y644207D01*
X870818Y644284D01*
X870784Y644292D01*
X870752Y644305D01*
X870565Y644345D01*
X870380Y644391D01*
X870346Y644393D01*
X870312Y644400D01*
X870000Y644419D01*
X866901Y644419D01*
X861174Y646791D01*
X856791Y651174D01*
X854419Y656901D01*
X854419Y663099D01*
X856791Y668826D01*
X861174Y673209D01*
X866901Y675581D01*
X870000Y675581D01*
X870035Y675584D01*
X870069Y675582D01*
X870258Y675604D01*
X870449Y675621D01*
X870482Y675630D01*
X870516Y675634D01*
X870699Y675689D01*
X870883Y675739D01*
X870914Y675754D01*
X870947Y675764D01*
X871118Y675851D01*
X871290Y675933D01*
X871318Y675953D01*
X871349Y675968D01*
X871501Y676084D01*
X871656Y676195D01*
X871680Y676220D01*
X871707Y676240D01*
X871836Y676380D01*
X871970Y676517D01*
X871989Y676546D01*
X872013Y676572D01*
X872115Y676733D01*
X872222Y676890D01*
X872236Y676922D01*
X872254Y676951D01*
X872327Y677128D01*
X872404Y677302D01*
X872412Y677336D01*
X872425Y677368D01*
X872465Y677555D01*
X872511Y677740D01*
X872513Y677774D01*
X872520Y677808D01*
X872539Y678120D01*
X872539Y680000D01*
X872536Y680035D01*
X872538Y680069D01*
X872516Y680258D01*
X872499Y680449D01*
X872490Y680482D01*
X872486Y680516D01*
X872431Y680699D01*
X872381Y680883D01*
X872366Y680914D01*
X872356Y680947D01*
X872269Y681118D01*
X872187Y681290D01*
X872167Y681318D01*
X872152Y681349D01*
X872036Y681501D01*
X871925Y681656D01*
X871900Y681680D01*
X871880Y681707D01*
X871740Y681836D01*
X871603Y681970D01*
X871574Y681989D01*
X871548Y682013D01*
X871387Y682115D01*
X871230Y682222D01*
X871198Y682236D01*
X871169Y682254D01*
X870992Y682327D01*
X870818Y682404D01*
X870784Y682412D01*
X870752Y682425D01*
X870565Y682465D01*
X870380Y682511D01*
X870346Y682513D01*
X870312Y682520D01*
X870000Y682539D01*
X720000Y682539D01*
X719966Y682536D01*
X719931Y682538D01*
X719742Y682516D01*
X719552Y682499D01*
X719518Y682490D01*
X719484Y682486D01*
X719301Y682431D01*
X719117Y682381D01*
X719086Y682366D01*
X719053Y682356D01*
X718882Y682269D01*
X718711Y682187D01*
X718682Y682167D01*
X718651Y682152D01*
X718499Y682036D01*
X718344Y681925D01*
X718320Y681900D01*
X718293Y681880D01*
X718164Y681740D01*
X718030Y681603D01*
X718011Y681574D01*
X717988Y681548D01*
X717885Y681387D01*
X717778Y681230D01*
X717764Y681198D01*
X717746Y681169D01*
X717673Y680992D01*
X717596Y680818D01*
X717588Y680784D01*
X717575Y680752D01*
X717535Y680565D01*
X717489Y680380D01*
X717487Y680346D01*
X717480Y680312D01*
X717461Y680000D01*
X717461Y590000D01*
X717464Y589966D01*
X717462Y589931D01*
X717484Y589742D01*
X717501Y589552D01*
X717510Y589518D01*
X717514Y589484D01*
X717569Y589301D01*
X717619Y589117D01*
X717634Y589086D01*
X717644Y589053D01*
X717731Y588882D01*
X717813Y588711D01*
X717833Y588682D01*
X717848Y588651D01*
X717964Y588499D01*
X718075Y588344D01*
X718100Y588320D01*
X718120Y588293D01*
X718261Y588164D01*
X718397Y588030D01*
X718426Y588011D01*
X718452Y587988D01*
X718613Y587885D01*
X718770Y587778D01*
X718802Y587764D01*
X718831Y587746D01*
X719008Y587673D01*
X719182Y587596D01*
X719216Y587588D01*
X719248Y587575D01*
X719435Y587535D01*
X719620Y587489D01*
X719654Y587487D01*
X719688Y587480D01*
X720000Y587461D01*
X850000Y587461D01*
X850164Y587475D01*
G37*
G36*
X791035Y15464D02*
X791035Y15464D01*
X791069Y15462D01*
X791258Y15484D01*
X791449Y15501D01*
X791482Y15510D01*
X791516Y15514D01*
X791699Y15569D01*
X791883Y15619D01*
X791914Y15634D01*
X791947Y15644D01*
X792118Y15731D01*
X792290Y15813D01*
X792318Y15833D01*
X792349Y15848D01*
X792501Y15964D01*
X792656Y16075D01*
X792680Y16100D01*
X792707Y16120D01*
X792836Y16261D01*
X792970Y16397D01*
X792989Y16426D01*
X793013Y16452D01*
X793115Y16613D01*
X793222Y16770D01*
X793236Y16802D01*
X793254Y16831D01*
X793327Y17008D01*
X793404Y17182D01*
X793412Y17216D01*
X793425Y17248D01*
X793465Y17435D01*
X793511Y17620D01*
X793513Y17654D01*
X793520Y17688D01*
X793539Y18000D01*
X793539Y133552D01*
X793539Y133560D01*
X793539Y133569D01*
X793519Y133783D01*
X793499Y134000D01*
X793497Y134009D01*
X793496Y134017D01*
X793438Y134225D01*
X793381Y134435D01*
X793377Y134442D01*
X793375Y134451D01*
X793280Y134647D01*
X793187Y134841D01*
X793183Y134848D01*
X793179Y134856D01*
X793051Y135032D01*
X792925Y135207D01*
X792919Y135213D01*
X792914Y135220D01*
X792759Y135369D01*
X792603Y135521D01*
X792595Y135526D01*
X792589Y135532D01*
X792410Y135651D01*
X792230Y135773D01*
X792222Y135777D01*
X792215Y135782D01*
X792017Y135867D01*
X791849Y135942D01*
X791849Y146790D01*
X791846Y146824D01*
X791848Y146859D01*
X791835Y146975D01*
X791849Y147210D01*
X791849Y158062D01*
X791931Y158086D01*
X791939Y158090D01*
X791947Y158092D01*
X792140Y158191D01*
X792334Y158288D01*
X792341Y158293D01*
X792349Y158297D01*
X792521Y158428D01*
X792695Y158557D01*
X792700Y158564D01*
X792707Y158569D01*
X792854Y158728D01*
X793002Y158886D01*
X793007Y158894D01*
X793013Y158900D01*
X793128Y159081D01*
X793246Y159265D01*
X793250Y159273D01*
X793254Y159280D01*
X793336Y159480D01*
X793420Y159680D01*
X793422Y159688D01*
X793425Y159696D01*
X793471Y159908D01*
X793518Y160119D01*
X793518Y160128D01*
X793520Y160136D01*
X793539Y160448D01*
X793539Y169948D01*
X803052Y179461D01*
X803940Y179461D01*
X804095Y179475D01*
X804251Y179480D01*
X804319Y179494D01*
X804388Y179501D01*
X804539Y179542D01*
X804691Y179575D01*
X804755Y179601D01*
X804822Y179619D01*
X804963Y179686D01*
X805108Y179745D01*
X805166Y179783D01*
X805229Y179813D01*
X805356Y179903D01*
X805488Y179987D01*
X805539Y180034D01*
X805595Y180075D01*
X805704Y180186D01*
X805819Y180292D01*
X805861Y180348D01*
X805909Y180397D01*
X805996Y180526D01*
X806091Y180651D01*
X806122Y180713D01*
X806161Y180770D01*
X806225Y180913D01*
X806295Y181052D01*
X806315Y181118D01*
X806344Y181182D01*
X806381Y181334D01*
X806426Y181483D01*
X806434Y181552D01*
X806450Y181620D01*
X806460Y181775D01*
X806478Y181930D01*
X806474Y182000D01*
X806478Y182069D01*
X806460Y182224D01*
X806450Y182380D01*
X806434Y182447D01*
X806426Y182516D01*
X806381Y182666D01*
X806344Y182817D01*
X806316Y182881D01*
X806296Y182947D01*
X806225Y183086D01*
X806162Y183229D01*
X806114Y183304D01*
X806091Y183349D01*
X806056Y183395D01*
X805994Y183493D01*
X804990Y184875D01*
X804264Y186300D01*
X803821Y187661D01*
X816000Y187661D01*
X816035Y187664D01*
X816069Y187662D01*
X816258Y187684D01*
X816449Y187700D01*
X816482Y187710D01*
X816516Y187714D01*
X816699Y187769D01*
X816883Y187819D01*
X816914Y187834D01*
X816947Y187844D01*
X817118Y187931D01*
X817290Y188012D01*
X817318Y188033D01*
X817349Y188048D01*
X817501Y188163D01*
X817656Y188275D01*
X817680Y188299D01*
X817707Y188320D01*
X817836Y188460D01*
X817970Y188597D01*
X817989Y188626D01*
X818013Y188651D01*
X818115Y188812D01*
X818222Y188970D01*
X818236Y189002D01*
X818254Y189031D01*
X818327Y189208D01*
X818404Y189382D01*
X818412Y189416D01*
X818425Y189448D01*
X818465Y189634D01*
X818511Y189819D01*
X818513Y189854D01*
X818520Y189888D01*
X818539Y190200D01*
X818536Y190235D01*
X818538Y190269D01*
X818516Y190459D01*
X818499Y190649D01*
X818490Y190682D01*
X818486Y190716D01*
X818431Y190899D01*
X818381Y191083D01*
X818366Y191114D01*
X818356Y191147D01*
X818269Y191318D01*
X818187Y191490D01*
X818167Y191518D01*
X818152Y191549D01*
X818036Y191701D01*
X817925Y191856D01*
X817900Y191880D01*
X817880Y191907D01*
X817740Y192037D01*
X817603Y192170D01*
X817574Y192189D01*
X817548Y192213D01*
X817387Y192315D01*
X817230Y192422D01*
X817198Y192436D01*
X817169Y192454D01*
X816992Y192527D01*
X816818Y192604D01*
X816784Y192612D01*
X816752Y192625D01*
X816565Y192666D01*
X816380Y192711D01*
X816346Y192713D01*
X816312Y192720D01*
X816000Y192739D01*
X803821Y192739D01*
X804264Y194100D01*
X804990Y195525D01*
X805703Y196507D01*
X805783Y196641D01*
X805871Y196770D01*
X805899Y196834D01*
X805935Y196894D01*
X805990Y197039D01*
X806053Y197182D01*
X806069Y197250D01*
X806094Y197315D01*
X806123Y197468D01*
X806160Y197620D01*
X806164Y197689D01*
X806177Y197757D01*
X806178Y197913D01*
X806187Y198069D01*
X806179Y198138D01*
X806180Y198208D01*
X806153Y198361D01*
X806135Y198516D01*
X806115Y198583D01*
X806103Y198651D01*
X806050Y198798D01*
X806005Y198947D01*
X805973Y199009D01*
X805950Y199075D01*
X805871Y199210D01*
X805801Y199349D01*
X805759Y199404D01*
X805724Y199464D01*
X805623Y199583D01*
X805529Y199707D01*
X805477Y199755D01*
X805432Y199808D01*
X805312Y199907D01*
X805197Y200013D01*
X805139Y200050D01*
X805085Y200094D01*
X804949Y200171D01*
X804818Y200254D01*
X804753Y200281D01*
X804693Y200315D01*
X804545Y200366D01*
X804401Y200425D01*
X804333Y200440D01*
X804267Y200463D01*
X804113Y200487D01*
X803961Y200520D01*
X803872Y200526D01*
X803823Y200533D01*
X803765Y200532D01*
X803649Y200539D01*
X769000Y200539D01*
X768836Y200525D01*
X768672Y200518D01*
X768612Y200505D01*
X768552Y200499D01*
X768393Y200456D01*
X768232Y200420D01*
X768176Y200397D01*
X768117Y200381D01*
X767969Y200310D01*
X767817Y200247D01*
X767765Y200214D01*
X767711Y200187D01*
X767577Y200092D01*
X767439Y200002D01*
X767381Y199951D01*
X767344Y199925D01*
X767302Y199882D01*
X767204Y199796D01*
X738204Y170796D01*
X738099Y170669D01*
X737988Y170548D01*
X737955Y170497D01*
X737916Y170450D01*
X737834Y170307D01*
X737746Y170169D01*
X737722Y170112D01*
X737692Y170059D01*
X737637Y169904D01*
X737575Y169752D01*
X737562Y169692D01*
X737541Y169635D01*
X737515Y169473D01*
X737480Y169312D01*
X737475Y169235D01*
X737468Y169191D01*
X737469Y169130D01*
X737461Y169000D01*
X737461Y18000D01*
X737464Y17966D01*
X737462Y17931D01*
X737484Y17742D01*
X737501Y17552D01*
X737510Y17518D01*
X737514Y17484D01*
X737569Y17301D01*
X737619Y17117D01*
X737634Y17086D01*
X737644Y17053D01*
X737731Y16882D01*
X737813Y16711D01*
X737833Y16682D01*
X737848Y16651D01*
X737964Y16499D01*
X738075Y16344D01*
X738100Y16320D01*
X738120Y16293D01*
X738261Y16164D01*
X738397Y16030D01*
X738426Y16011D01*
X738452Y15988D01*
X738613Y15885D01*
X738770Y15778D01*
X738802Y15764D01*
X738831Y15746D01*
X739008Y15673D01*
X739182Y15596D01*
X739216Y15588D01*
X739248Y15575D01*
X739435Y15535D01*
X739620Y15489D01*
X739654Y15487D01*
X739688Y15480D01*
X740000Y15461D01*
X791000Y15461D01*
X791035Y15464D01*
G37*
G36*
X853912Y15480D02*
X853912Y15480D01*
X854123Y15496D01*
X854136Y15499D01*
X854149Y15501D01*
X854355Y15557D01*
X854559Y15610D01*
X854571Y15616D01*
X854584Y15619D01*
X854774Y15710D01*
X854968Y15799D01*
X854978Y15807D01*
X854990Y15813D01*
X855162Y15935D01*
X855336Y16058D01*
X855346Y16067D01*
X855356Y16075D01*
X855504Y16227D01*
X855654Y16377D01*
X855661Y16388D01*
X855670Y16397D01*
X855789Y16572D01*
X855910Y16747D01*
X855917Y16762D01*
X855923Y16770D01*
X855938Y16806D01*
X856047Y17028D01*
X856791Y18826D01*
X861174Y23209D01*
X866901Y25581D01*
X872000Y25581D01*
X872035Y25584D01*
X872069Y25582D01*
X872258Y25604D01*
X872449Y25621D01*
X872482Y25630D01*
X872516Y25634D01*
X872699Y25689D01*
X872883Y25739D01*
X872914Y25754D01*
X872947Y25764D01*
X873118Y25851D01*
X873290Y25933D01*
X873318Y25953D01*
X873349Y25968D01*
X873501Y26084D01*
X873656Y26195D01*
X873680Y26220D01*
X873707Y26240D01*
X873836Y26380D01*
X873970Y26517D01*
X873989Y26546D01*
X874013Y26572D01*
X874115Y26733D01*
X874222Y26890D01*
X874236Y26922D01*
X874254Y26951D01*
X874327Y27128D01*
X874404Y27302D01*
X874412Y27336D01*
X874425Y27368D01*
X874465Y27555D01*
X874511Y27740D01*
X874513Y27774D01*
X874520Y27808D01*
X874539Y28120D01*
X874539Y131000D01*
X874536Y131035D01*
X874538Y131069D01*
X874516Y131258D01*
X874499Y131449D01*
X874490Y131482D01*
X874486Y131516D01*
X874431Y131699D01*
X874381Y131883D01*
X874366Y131914D01*
X874356Y131947D01*
X874269Y132118D01*
X874187Y132290D01*
X874167Y132318D01*
X874152Y132349D01*
X874036Y132501D01*
X873925Y132656D01*
X873900Y132680D01*
X873880Y132707D01*
X873740Y132836D01*
X873603Y132970D01*
X873574Y132989D01*
X873548Y133013D01*
X873387Y133115D01*
X873230Y133222D01*
X873198Y133236D01*
X873169Y133254D01*
X872992Y133327D01*
X872818Y133404D01*
X872784Y133412D01*
X872752Y133425D01*
X872565Y133465D01*
X872380Y133511D01*
X872346Y133513D01*
X872312Y133520D01*
X872000Y133539D01*
X803000Y133539D01*
X802966Y133536D01*
X802931Y133538D01*
X802742Y133516D01*
X802552Y133499D01*
X802518Y133490D01*
X802484Y133486D01*
X802301Y133431D01*
X802117Y133381D01*
X802086Y133366D01*
X802053Y133356D01*
X801882Y133269D01*
X801711Y133187D01*
X801682Y133167D01*
X801651Y133152D01*
X801499Y133036D01*
X801344Y132925D01*
X801320Y132900D01*
X801293Y132880D01*
X801164Y132740D01*
X801030Y132603D01*
X801011Y132574D01*
X800988Y132548D01*
X800885Y132387D01*
X800778Y132230D01*
X800764Y132198D01*
X800746Y132169D01*
X800673Y131992D01*
X800596Y131818D01*
X800588Y131784D01*
X800575Y131752D01*
X800535Y131565D01*
X800489Y131380D01*
X800487Y131346D01*
X800480Y131312D01*
X800461Y131000D01*
X800461Y18000D01*
X800464Y17966D01*
X800462Y17931D01*
X800484Y17742D01*
X800501Y17552D01*
X800510Y17518D01*
X800514Y17484D01*
X800569Y17301D01*
X800619Y17117D01*
X800634Y17086D01*
X800644Y17053D01*
X800731Y16882D01*
X800813Y16711D01*
X800833Y16682D01*
X800848Y16651D01*
X800964Y16499D01*
X801075Y16344D01*
X801100Y16320D01*
X801120Y16293D01*
X801261Y16164D01*
X801397Y16030D01*
X801426Y16011D01*
X801452Y15988D01*
X801613Y15885D01*
X801770Y15778D01*
X801802Y15764D01*
X801831Y15746D01*
X802008Y15673D01*
X802182Y15596D01*
X802216Y15588D01*
X802248Y15575D01*
X802435Y15535D01*
X802620Y15489D01*
X802654Y15487D01*
X802688Y15480D01*
X803000Y15461D01*
X853701Y15461D01*
X853912Y15480D01*
G37*
G36*
X892035Y153464D02*
X892035Y153464D01*
X892069Y153462D01*
X892258Y153484D01*
X892449Y153501D01*
X892482Y153510D01*
X892516Y153514D01*
X892699Y153569D01*
X892883Y153619D01*
X892914Y153634D01*
X892947Y153644D01*
X893118Y153731D01*
X893290Y153813D01*
X893318Y153833D01*
X893349Y153848D01*
X893501Y153964D01*
X893656Y154075D01*
X893680Y154100D01*
X893707Y154120D01*
X893836Y154261D01*
X893970Y154397D01*
X893989Y154426D01*
X894013Y154452D01*
X894115Y154613D01*
X894222Y154770D01*
X894236Y154802D01*
X894254Y154831D01*
X894327Y155008D01*
X894404Y155182D01*
X894412Y155216D01*
X894425Y155248D01*
X894465Y155435D01*
X894511Y155620D01*
X894513Y155654D01*
X894520Y155688D01*
X894539Y156000D01*
X894539Y294000D01*
X894536Y294035D01*
X894538Y294069D01*
X894516Y294258D01*
X894499Y294449D01*
X894490Y294482D01*
X894486Y294516D01*
X894431Y294699D01*
X894381Y294883D01*
X894366Y294914D01*
X894356Y294947D01*
X894269Y295118D01*
X894187Y295290D01*
X894167Y295318D01*
X894152Y295349D01*
X894037Y295500D01*
X893925Y295656D01*
X893900Y295680D01*
X893880Y295707D01*
X893740Y295836D01*
X893603Y295970D01*
X893574Y295989D01*
X893548Y296013D01*
X893387Y296115D01*
X893230Y296222D01*
X893198Y296236D01*
X893169Y296254D01*
X892992Y296327D01*
X892818Y296404D01*
X892784Y296412D01*
X892752Y296425D01*
X892565Y296465D01*
X892380Y296511D01*
X892346Y296513D01*
X892312Y296520D01*
X892000Y296539D01*
X840116Y296539D01*
X839935Y296523D01*
X839754Y296513D01*
X839711Y296503D01*
X839668Y296499D01*
X839493Y296452D01*
X839316Y296410D01*
X839275Y296392D01*
X839234Y296381D01*
X839070Y296303D01*
X838902Y296230D01*
X838866Y296206D01*
X838827Y296187D01*
X838680Y296082D01*
X838528Y295981D01*
X838496Y295951D01*
X838461Y295925D01*
X838334Y295795D01*
X838203Y295669D01*
X838177Y295634D01*
X838147Y295603D01*
X838045Y295452D01*
X837938Y295305D01*
X837919Y295266D01*
X837895Y295230D01*
X837821Y295063D01*
X837742Y294900D01*
X837730Y294858D01*
X837712Y294818D01*
X837669Y294641D01*
X837620Y294466D01*
X837616Y294423D01*
X837606Y294380D01*
X837595Y294199D01*
X837577Y294018D01*
X837581Y293974D01*
X837578Y293931D01*
X837599Y293750D01*
X837614Y293569D01*
X837625Y293527D01*
X837630Y293484D01*
X837683Y293309D01*
X837729Y293134D01*
X837751Y293085D01*
X837760Y293053D01*
X837789Y292997D01*
X837854Y292847D01*
X838336Y291900D01*
X838779Y290539D01*
X826000Y290539D01*
X825966Y290536D01*
X825931Y290538D01*
X825742Y290516D01*
X825552Y290499D01*
X825518Y290490D01*
X825484Y290486D01*
X825301Y290431D01*
X825117Y290381D01*
X825086Y290366D01*
X825053Y290356D01*
X824882Y290269D01*
X824711Y290188D01*
X824682Y290167D01*
X824651Y290152D01*
X824499Y290036D01*
X824344Y289925D01*
X824320Y289901D01*
X824293Y289880D01*
X824164Y289740D01*
X824030Y289603D01*
X824011Y289574D01*
X823988Y289549D01*
X823885Y289388D01*
X823778Y289230D01*
X823764Y289198D01*
X823746Y289169D01*
X823673Y288992D01*
X823596Y288818D01*
X823588Y288784D01*
X823575Y288752D01*
X823535Y288566D01*
X823489Y288380D01*
X823487Y288346D01*
X823480Y288312D01*
X823461Y288000D01*
X823464Y287965D01*
X823462Y287931D01*
X823484Y287741D01*
X823501Y287551D01*
X823510Y287518D01*
X823514Y287484D01*
X823569Y287301D01*
X823619Y287117D01*
X823634Y287086D01*
X823644Y287053D01*
X823731Y286882D01*
X823813Y286710D01*
X823833Y286682D01*
X823848Y286651D01*
X823964Y286499D01*
X824075Y286344D01*
X824100Y286320D01*
X824120Y286292D01*
X824261Y286163D01*
X824397Y286030D01*
X824426Y286011D01*
X824452Y285987D01*
X824613Y285885D01*
X824770Y285778D01*
X824802Y285764D01*
X824831Y285745D01*
X825008Y285673D01*
X825182Y285596D01*
X825216Y285588D01*
X825248Y285575D01*
X825435Y285534D01*
X825620Y285489D01*
X825654Y285487D01*
X825688Y285480D01*
X826000Y285461D01*
X838779Y285461D01*
X838336Y284100D01*
X837610Y282675D01*
X836670Y281381D01*
X835539Y280250D01*
X834245Y279310D01*
X832820Y278584D01*
X831482Y278149D01*
X831314Y278077D01*
X831145Y278012D01*
X831107Y277989D01*
X831067Y277972D01*
X830915Y277872D01*
X830760Y277778D01*
X830727Y277749D01*
X830691Y277725D01*
X830559Y277600D01*
X830423Y277480D01*
X830396Y277446D01*
X830364Y277416D01*
X830256Y277269D01*
X830143Y277127D01*
X830123Y277088D01*
X830097Y277053D01*
X830016Y276890D01*
X829931Y276730D01*
X829917Y276688D01*
X829898Y276649D01*
X829848Y276475D01*
X829791Y276302D01*
X829785Y276258D01*
X829773Y276217D01*
X829755Y276036D01*
X829730Y275855D01*
X829732Y275812D01*
X829727Y275769D01*
X829741Y275588D01*
X829748Y275406D01*
X829758Y275363D01*
X829761Y275320D01*
X829806Y275144D01*
X829846Y274966D01*
X829863Y274926D01*
X829874Y274884D01*
X829949Y274719D01*
X830019Y274551D01*
X830043Y274514D01*
X830061Y274474D01*
X830165Y274325D01*
X830264Y274172D01*
X830299Y274132D01*
X830318Y274105D01*
X830363Y274060D01*
X830471Y273938D01*
X844461Y259948D01*
X844461Y174539D01*
X839387Y174539D01*
X839231Y174525D01*
X839076Y174520D01*
X839008Y174506D01*
X838938Y174499D01*
X838788Y174458D01*
X838636Y174426D01*
X838571Y174399D01*
X838504Y174381D01*
X838364Y174314D01*
X838219Y174255D01*
X838160Y174217D01*
X838097Y174187D01*
X837971Y174097D01*
X837839Y174013D01*
X837788Y173966D01*
X837731Y173925D01*
X837622Y173813D01*
X837508Y173708D01*
X837466Y173653D01*
X837417Y173603D01*
X837330Y173473D01*
X837236Y173349D01*
X837204Y173287D01*
X837165Y173230D01*
X837102Y173087D01*
X837031Y172948D01*
X837011Y172881D01*
X836983Y172818D01*
X836946Y172666D01*
X836901Y172517D01*
X836893Y172448D01*
X836876Y172380D01*
X836867Y172225D01*
X836849Y172070D01*
X836853Y172000D01*
X836849Y171931D01*
X836867Y171776D01*
X836876Y171620D01*
X836893Y171553D01*
X836901Y171484D01*
X836946Y171334D01*
X836983Y171183D01*
X837011Y171119D01*
X837031Y171053D01*
X837102Y170914D01*
X837165Y170771D01*
X837213Y170696D01*
X837235Y170651D01*
X837271Y170605D01*
X837333Y170507D01*
X837610Y170126D01*
X838336Y168700D01*
X838779Y167339D01*
X823000Y167339D01*
X822966Y167336D01*
X822931Y167338D01*
X822742Y167316D01*
X822552Y167299D01*
X822518Y167290D01*
X822484Y167286D01*
X822301Y167231D01*
X822117Y167181D01*
X822086Y167166D01*
X822053Y167156D01*
X821882Y167069D01*
X821711Y166988D01*
X821682Y166967D01*
X821651Y166952D01*
X821499Y166836D01*
X821344Y166725D01*
X821320Y166701D01*
X821293Y166680D01*
X821164Y166540D01*
X821030Y166403D01*
X821011Y166374D01*
X820988Y166349D01*
X820885Y166188D01*
X820778Y166030D01*
X820764Y165998D01*
X820746Y165969D01*
X820673Y165792D01*
X820596Y165618D01*
X820588Y165584D01*
X820575Y165552D01*
X820535Y165366D01*
X820489Y165180D01*
X820487Y165146D01*
X820480Y165112D01*
X820461Y164800D01*
X820464Y164765D01*
X820462Y164731D01*
X820484Y164541D01*
X820501Y164351D01*
X820510Y164318D01*
X820514Y164284D01*
X820569Y164101D01*
X820619Y163917D01*
X820634Y163886D01*
X820644Y163853D01*
X820731Y163682D01*
X820813Y163510D01*
X820833Y163482D01*
X820848Y163451D01*
X820964Y163299D01*
X821075Y163144D01*
X821100Y163120D01*
X821120Y163092D01*
X821261Y162963D01*
X821397Y162830D01*
X821426Y162811D01*
X821452Y162787D01*
X821613Y162685D01*
X821770Y162578D01*
X821802Y162564D01*
X821831Y162545D01*
X822008Y162473D01*
X822182Y162396D01*
X822216Y162388D01*
X822248Y162375D01*
X822435Y162334D01*
X822620Y162289D01*
X822654Y162287D01*
X822688Y162280D01*
X823000Y162261D01*
X838779Y162261D01*
X838336Y160900D01*
X837610Y159475D01*
X836670Y158181D01*
X836285Y157796D01*
X836202Y157696D01*
X836111Y157603D01*
X836057Y157523D01*
X835996Y157450D01*
X835932Y157337D01*
X835859Y157230D01*
X835820Y157142D01*
X835773Y157059D01*
X835729Y156937D01*
X835677Y156818D01*
X835654Y156725D01*
X835622Y156635D01*
X835601Y156507D01*
X835570Y156380D01*
X835564Y156285D01*
X835548Y156191D01*
X835550Y156061D01*
X835542Y155931D01*
X835553Y155836D01*
X835555Y155741D01*
X835579Y155613D01*
X835594Y155484D01*
X835622Y155392D01*
X835640Y155299D01*
X835687Y155177D01*
X835725Y155053D01*
X835768Y154968D01*
X835802Y154878D01*
X835870Y154767D01*
X835929Y154651D01*
X835987Y154575D01*
X836036Y154494D01*
X836122Y154396D01*
X836201Y154293D01*
X836271Y154228D01*
X836334Y154156D01*
X836436Y154076D01*
X836532Y153988D01*
X836613Y153936D01*
X836688Y153877D01*
X836802Y153816D01*
X836912Y153746D01*
X837000Y153709D01*
X837084Y153664D01*
X837208Y153624D01*
X837328Y153575D01*
X837422Y153555D01*
X837513Y153525D01*
X837641Y153507D01*
X837769Y153480D01*
X837898Y153472D01*
X837959Y153464D01*
X838003Y153466D01*
X838080Y153461D01*
X892000Y153461D01*
X892035Y153464D01*
G37*
%LPC*%
G36*
X839401Y398279D02*
X839401Y398279D01*
X839401Y410219D01*
X849799Y410219D01*
X851780Y409958D01*
X853709Y409441D01*
X855555Y408676D01*
X857286Y407677D01*
X858870Y406461D01*
X860283Y405048D01*
X861499Y403464D01*
X862498Y401733D01*
X863263Y399887D01*
X863694Y398279D01*
X839401Y398279D01*
G37*
%LPD*%
%LPC*%
G36*
X839401Y623323D02*
X839401Y623323D01*
X839401Y635263D01*
X849799Y635263D01*
X851780Y635002D01*
X853709Y634485D01*
X855555Y633720D01*
X857286Y632721D01*
X858870Y631505D01*
X860283Y630092D01*
X861499Y628508D01*
X862498Y626777D01*
X863263Y624931D01*
X863694Y623323D01*
X839401Y623323D01*
G37*
%LPD*%
%LPC*%
G36*
X808506Y623323D02*
X808506Y623323D01*
X808937Y624931D01*
X809702Y626777D01*
X810701Y628508D01*
X811917Y630092D01*
X813330Y631505D01*
X814914Y632721D01*
X816645Y633720D01*
X818491Y634485D01*
X820420Y635002D01*
X822401Y635263D01*
X832799Y635263D01*
X832799Y623323D01*
X808506Y623323D01*
G37*
%LPD*%
%LPC*%
G36*
X808506Y398279D02*
X808506Y398279D01*
X808937Y399887D01*
X809702Y401733D01*
X810701Y403464D01*
X811917Y405048D01*
X813330Y406461D01*
X814914Y407677D01*
X816645Y408676D01*
X818491Y409441D01*
X820420Y409958D01*
X822401Y410219D01*
X832799Y410219D01*
X832799Y398279D01*
X808506Y398279D01*
G37*
%LPD*%
%LPC*%
G36*
X839401Y379737D02*
X839401Y379737D01*
X839401Y391677D01*
X863694Y391677D01*
X863263Y390069D01*
X862498Y388223D01*
X861499Y386492D01*
X860283Y384908D01*
X858870Y383495D01*
X857286Y382279D01*
X855555Y381280D01*
X853709Y380515D01*
X851780Y379998D01*
X849799Y379737D01*
X839401Y379737D01*
G37*
%LPD*%
%LPC*%
G36*
X839401Y604781D02*
X839401Y604781D01*
X839401Y616721D01*
X863694Y616721D01*
X863263Y615113D01*
X862498Y613267D01*
X861499Y611536D01*
X860283Y609952D01*
X858870Y608539D01*
X857286Y607323D01*
X855555Y606324D01*
X853709Y605559D01*
X851780Y605042D01*
X849799Y604781D01*
X839401Y604781D01*
G37*
%LPD*%
%LPC*%
G36*
X822401Y379737D02*
X822401Y379737D01*
X820420Y379998D01*
X818491Y380515D01*
X816645Y381280D01*
X814914Y382279D01*
X813330Y383495D01*
X811917Y384908D01*
X810701Y386492D01*
X809702Y388223D01*
X808937Y390069D01*
X808506Y391677D01*
X832799Y391677D01*
X832799Y379737D01*
X822401Y379737D01*
G37*
%LPD*%
%LPC*%
G36*
X822401Y604781D02*
X822401Y604781D01*
X820420Y605042D01*
X818491Y605559D01*
X816645Y606324D01*
X814914Y607323D01*
X813330Y608539D01*
X811917Y609952D01*
X810701Y611536D01*
X809702Y613267D01*
X808937Y615113D01*
X808506Y616721D01*
X832799Y616721D01*
X832799Y604781D01*
X822401Y604781D01*
G37*
%LPD*%
%LPC*%
G36*
X185999Y628999D02*
X185999Y628999D01*
X185999Y641241D01*
X189313Y641241D01*
X198241Y632313D01*
X198241Y628999D01*
X185999Y628999D01*
G37*
%LPD*%
%LPC*%
G36*
X167759Y628999D02*
X167759Y628999D01*
X167759Y632313D01*
X176687Y641241D01*
X180001Y641241D01*
X180001Y628999D01*
X167759Y628999D01*
G37*
%LPD*%
%LPC*%
G36*
X185999Y610759D02*
X185999Y610759D01*
X185999Y623001D01*
X198241Y623001D01*
X198241Y619687D01*
X189313Y610759D01*
X185999Y610759D01*
G37*
%LPD*%
%LPC*%
G36*
X176687Y610759D02*
X176687Y610759D01*
X167759Y619687D01*
X167759Y623001D01*
X180001Y623001D01*
X180001Y610759D01*
X176687Y610759D01*
G37*
%LPD*%
%LPC*%
G36*
X309293Y666793D02*
X309293Y666793D01*
X309293Y674923D01*
X315742Y674923D01*
X317440Y674654D01*
X319075Y674122D01*
X320607Y673342D01*
X321998Y672331D01*
X323213Y671116D01*
X324224Y669725D01*
X325004Y668193D01*
X325459Y666793D01*
X309293Y666793D01*
G37*
%LPD*%
%LPC*%
G36*
X287541Y666793D02*
X287541Y666793D01*
X287996Y668193D01*
X288776Y669725D01*
X289787Y671116D01*
X291002Y672331D01*
X292393Y673342D01*
X293925Y674122D01*
X295560Y674654D01*
X297258Y674923D01*
X303707Y674923D01*
X303707Y666793D01*
X287541Y666793D01*
G37*
%LPD*%
%LPC*%
G36*
X309293Y653077D02*
X309293Y653077D01*
X309293Y661207D01*
X325459Y661207D01*
X325004Y659807D01*
X324224Y658275D01*
X323213Y656884D01*
X321998Y655669D01*
X320607Y654658D01*
X319075Y653878D01*
X317440Y653346D01*
X315742Y653077D01*
X309293Y653077D01*
G37*
%LPD*%
%LPC*%
G36*
X297258Y653077D02*
X297258Y653077D01*
X295560Y653346D01*
X293925Y653878D01*
X292393Y654658D01*
X291002Y655669D01*
X289787Y656884D01*
X288776Y658275D01*
X287996Y659807D01*
X287541Y661207D01*
X303707Y661207D01*
X303707Y653077D01*
X297258Y653077D01*
G37*
%LPD*%
%LPC*%
G36*
X843392Y114892D02*
X843392Y114892D01*
X843392Y126641D01*
X846213Y126641D01*
X855141Y117713D01*
X855141Y114892D01*
X843392Y114892D01*
G37*
%LPD*%
%LPC*%
G36*
X824659Y114892D02*
X824659Y114892D01*
X824659Y117713D01*
X833587Y126641D01*
X836408Y126641D01*
X836408Y114892D01*
X824659Y114892D01*
G37*
%LPD*%
%LPC*%
G36*
X843392Y96159D02*
X843392Y96159D01*
X843392Y107908D01*
X855141Y107908D01*
X855141Y105087D01*
X846213Y96159D01*
X843392Y96159D01*
G37*
%LPD*%
%LPC*%
G36*
X833587Y96159D02*
X833587Y96159D01*
X824659Y105087D01*
X824659Y107908D01*
X836408Y107908D01*
X836408Y96159D01*
X833587Y96159D01*
G37*
%LPD*%
%LPC*%
G36*
X747838Y618999D02*
X747838Y618999D01*
X747838Y627880D01*
X749403Y627372D01*
X751162Y626476D01*
X752759Y625316D01*
X754155Y623920D01*
X755315Y622323D01*
X756211Y620564D01*
X756719Y618999D01*
X747838Y618999D01*
G37*
%LPD*%
%LPC*%
G36*
X822410Y48599D02*
X822410Y48599D01*
X822410Y57480D01*
X823975Y56972D01*
X825734Y56076D01*
X827331Y54916D01*
X828727Y53520D01*
X829887Y51923D01*
X830783Y50164D01*
X831291Y48599D01*
X822410Y48599D01*
G37*
%LPD*%
%LPC*%
G36*
X771610Y48599D02*
X771610Y48599D01*
X771610Y57480D01*
X773175Y56972D01*
X774934Y56076D01*
X776531Y54916D01*
X777927Y53520D01*
X779087Y51923D01*
X779983Y50164D01*
X780491Y48599D01*
X771610Y48599D01*
G37*
%LPD*%
%LPC*%
G36*
X732459Y618999D02*
X732459Y618999D01*
X732967Y620564D01*
X733863Y622323D01*
X735023Y623920D01*
X736419Y625316D01*
X738016Y626476D01*
X739775Y627372D01*
X741340Y627880D01*
X741340Y618999D01*
X732459Y618999D01*
G37*
%LPD*%
%LPC*%
G36*
X807031Y48599D02*
X807031Y48599D01*
X807539Y50164D01*
X808435Y51923D01*
X809595Y53520D01*
X810991Y54916D01*
X812588Y56076D01*
X814347Y56972D01*
X815912Y57480D01*
X815912Y48599D01*
X807031Y48599D01*
G37*
%LPD*%
%LPC*%
G36*
X747838Y612501D02*
X747838Y612501D01*
X756719Y612501D01*
X756211Y610936D01*
X755315Y609177D01*
X754155Y607580D01*
X752759Y606184D01*
X751162Y605024D01*
X749403Y604128D01*
X747838Y603620D01*
X747838Y612501D01*
G37*
%LPD*%
%LPC*%
G36*
X756231Y48599D02*
X756231Y48599D01*
X756739Y50164D01*
X757635Y51923D01*
X758795Y53520D01*
X760191Y54916D01*
X761788Y56076D01*
X763547Y56972D01*
X765112Y57480D01*
X765112Y48599D01*
X756231Y48599D01*
G37*
%LPD*%
%LPC*%
G36*
X822410Y42101D02*
X822410Y42101D01*
X831291Y42101D01*
X830783Y40536D01*
X829887Y38777D01*
X828727Y37180D01*
X827331Y35784D01*
X825734Y34624D01*
X823975Y33728D01*
X822410Y33220D01*
X822410Y42101D01*
G37*
%LPD*%
%LPC*%
G36*
X771610Y42101D02*
X771610Y42101D01*
X780491Y42101D01*
X779983Y40536D01*
X779087Y38777D01*
X777927Y37180D01*
X776531Y35784D01*
X774934Y34624D01*
X773175Y33728D01*
X771610Y33220D01*
X771610Y42101D01*
G37*
%LPD*%
%LPC*%
G36*
X739775Y604128D02*
X739775Y604128D01*
X738016Y605024D01*
X736419Y606184D01*
X735023Y607580D01*
X733863Y609177D01*
X732967Y610936D01*
X732459Y612501D01*
X741340Y612501D01*
X741340Y603620D01*
X739775Y604128D01*
G37*
%LPD*%
%LPC*%
G36*
X763547Y33728D02*
X763547Y33728D01*
X761788Y34624D01*
X760191Y35784D01*
X758795Y37180D01*
X757635Y38777D01*
X756739Y40536D01*
X756231Y42101D01*
X765112Y42101D01*
X765112Y33220D01*
X763547Y33728D01*
G37*
%LPD*%
%LPC*%
G36*
X814347Y33728D02*
X814347Y33728D01*
X812588Y34624D01*
X810991Y35784D01*
X809595Y37180D01*
X808435Y38777D01*
X807539Y40536D01*
X807031Y42101D01*
X815912Y42101D01*
X815912Y33220D01*
X814347Y33728D01*
G37*
%LPD*%
%LPC*%
G36*
X778384Y149749D02*
X778384Y149749D01*
X778868Y151238D01*
X779657Y152787D01*
X780678Y154192D01*
X781908Y155422D01*
X783313Y156443D01*
X784862Y157232D01*
X786351Y157716D01*
X786351Y149749D01*
X778384Y149749D01*
G37*
%LPD*%
%LPC*%
G36*
X784862Y136768D02*
X784862Y136768D01*
X783313Y137557D01*
X781908Y138578D01*
X780678Y139808D01*
X779657Y141213D01*
X778868Y142762D01*
X778384Y144251D01*
X786351Y144251D01*
X786351Y136284D01*
X784862Y136768D01*
G37*
%LPD*%
%LPC*%
G36*
X378639Y628839D02*
X378639Y628839D01*
X378639Y636159D01*
X380000Y635716D01*
X381425Y634990D01*
X382719Y634050D01*
X383850Y632919D01*
X384790Y631625D01*
X385516Y630200D01*
X385959Y628839D01*
X378639Y628839D01*
G37*
%LPD*%
%LPC*%
G36*
X366241Y628839D02*
X366241Y628839D01*
X366684Y630200D01*
X367410Y631625D01*
X368350Y632919D01*
X369481Y634050D01*
X370775Y634990D01*
X372200Y635716D01*
X373561Y636159D01*
X373561Y628839D01*
X366241Y628839D01*
G37*
%LPD*%
%LPC*%
G36*
X751539Y471755D02*
X751539Y471755D01*
X751539Y478361D01*
X758145Y478361D01*
X758145Y477112D01*
X752788Y471755D01*
X751539Y471755D01*
G37*
%LPD*%
%LPC*%
G36*
X275229Y667855D02*
X275229Y667855D01*
X275229Y674461D01*
X281835Y674461D01*
X281835Y673212D01*
X276478Y667855D01*
X275229Y667855D01*
G37*
%LPD*%
%LPC*%
G36*
X268902Y667855D02*
X268902Y667855D01*
X263545Y673212D01*
X263545Y674461D01*
X270151Y674461D01*
X270151Y667855D01*
X268902Y667855D01*
G37*
%LPD*%
D10*
X733600Y414800D03*
D11*
X708200Y414800D03*
D12*
X671020Y480180D02*
X671020Y493388D01*
X645620Y493388D02*
X645620Y480180D01*
X645620Y403980D02*
X645620Y390772D01*
X671020Y390772D02*
X671020Y403980D01*
X620220Y480180D02*
X620220Y493388D01*
X620220Y403980D02*
X620220Y390772D01*
D13*
X813680Y338800D02*
X828920Y338800D01*
X828920Y313400D02*
X813680Y313400D01*
X813680Y288000D02*
X828920Y288000D01*
X828920Y215600D02*
X813680Y215600D01*
X813680Y190200D02*
X828920Y190200D01*
X828920Y164800D02*
X813680Y164800D01*
D14*
X335470Y430800D03*
X335470Y329200D03*
D15*
X584800Y419100D03*
X483200Y419100D03*
X586800Y167700D03*
X485200Y167700D03*
D14*
X370280Y99700D03*
X370280Y-1900D03*
D16*
X328619Y217787D03*
X400461Y289629D03*
D15*
X729500Y237200D03*
X627900Y237200D03*
D17*
X483200Y385000D03*
X584800Y385000D03*
D14*
X595400Y666400D03*
X595400Y564800D03*
D15*
X728500Y299800D03*
X626900Y299800D03*
X728500Y268000D03*
X626900Y268000D03*
D18*
X286700Y402600D03*
D19*
X286700Y377200D03*
X286700Y351800D03*
X286700Y326400D03*
X286700Y301000D03*
X286700Y275600D03*
X286700Y250200D03*
X286700Y224800D03*
X286700Y199400D03*
X286700Y174000D03*
X286700Y148600D03*
X286700Y123200D03*
X286700Y97800D03*
X286700Y72400D03*
X286700Y47000D03*
X439100Y47000D03*
X439100Y72400D03*
X439100Y97800D03*
X439100Y123200D03*
X439100Y148600D03*
X439100Y174000D03*
X439100Y199400D03*
X439100Y224800D03*
X439100Y250200D03*
X439100Y275600D03*
X439100Y301000D03*
X439100Y326400D03*
X439100Y351800D03*
X439100Y377200D03*
X439100Y402600D03*
D20*
X299900Y626300D03*
D21*
X299900Y600900D03*
X299900Y575500D03*
X299900Y550100D03*
X376100Y550100D03*
X376100Y575500D03*
X376100Y600900D03*
X376100Y626300D03*
D22*
X644890Y517700D03*
X721090Y517700D03*
D12*
X723364Y331140D02*
X710156Y331140D01*
X647164Y331140D02*
X633956Y331140D01*
D17*
X304700Y520700D03*
X406300Y520700D03*
D15*
X405760Y491230D03*
X304160Y491230D03*
D23*
X272690Y626200D03*
X272690Y677000D03*
X273500Y549726D03*
X273500Y600526D03*
D17*
X467700Y491100D03*
X569300Y491100D03*
D15*
X569300Y461900D03*
X467700Y461900D03*
D24*
X255410Y485000D03*
D11*
X273370Y502960D03*
D25*
X823400Y620022D02*
X848800Y620022D01*
X848800Y394978D02*
X823400Y394978D01*
D26*
X133900Y223800D03*
X159300Y223800D03*
X184700Y223800D03*
D14*
X219500Y302000D03*
X219500Y200400D03*
D15*
X184700Y254900D03*
X133900Y254900D03*
X184700Y282920D03*
X133900Y282920D03*
D12*
X773900Y379896D02*
X773900Y393104D01*
X773900Y316904D02*
X773900Y303696D01*
X749100Y379896D02*
X749100Y393104D01*
X749100Y316904D02*
X749100Y303696D01*
X489804Y283700D02*
X476596Y283700D01*
X476596Y258300D02*
X489804Y258300D01*
X552796Y258300D02*
X566004Y258300D01*
X566004Y283700D02*
X552796Y283700D01*
X489804Y232900D02*
X476596Y232900D01*
X476596Y207500D02*
X489804Y207500D01*
X552796Y232900D02*
X566004Y232900D01*
X566004Y207500D02*
X552796Y207500D01*
D17*
X509100Y349600D03*
X559900Y349600D03*
D15*
X562400Y135500D03*
X511600Y135500D03*
D14*
X621900Y105100D03*
X621900Y3500D03*
D15*
X586100Y42900D03*
X484500Y42900D03*
D17*
X484500Y9700D03*
X586100Y9700D03*
X510300Y77500D03*
X561100Y77500D03*
D14*
X662700Y79700D03*
X662700Y28900D03*
D27*
X819161Y45350D03*
X768361Y45350D03*
X717561Y45350D03*
D14*
X159900Y485900D03*
X159900Y384300D03*
D23*
X130100Y384400D03*
X130100Y486000D03*
X190700Y384300D03*
X190700Y485900D03*
D14*
X221500Y485900D03*
X221500Y384300D03*
D15*
X560320Y315720D03*
X509520Y315720D03*
D27*
X642989Y615750D03*
X693789Y615750D03*
X744589Y615750D03*
D12*
X697844Y170290D02*
X684636Y170290D01*
X621644Y170290D02*
X608436Y170290D01*
X611644Y140110D02*
X598436Y140110D01*
X674636Y140110D02*
X687844Y140110D01*
D13*
X173700Y24720D02*
X173700Y9480D01*
X199100Y9480D02*
X199100Y24720D01*
X224500Y24720D02*
X224500Y9480D01*
X151040Y70280D02*
X151040Y85520D01*
X176440Y85520D02*
X176440Y70280D01*
X201840Y70280D02*
X201840Y85520D01*
X227240Y85520D02*
X227240Y70280D01*
D28*
X394627Y329295D03*
X322785Y257453D03*
X398948Y192974D03*
X327106Y121132D03*
D13*
X150300Y154480D02*
X150300Y169720D01*
X175700Y169720D02*
X175700Y154480D01*
X201100Y154480D02*
X201100Y169720D01*
D16*
X329718Y173050D03*
X401560Y244892D03*
D17*
X629500Y204500D03*
X731100Y204500D03*
D12*
X363700Y410196D02*
X363700Y423404D01*
X363700Y347204D02*
X363700Y333996D01*
D29*
X720000Y111400D03*
X839900Y111400D03*
D12*
X770704Y252500D02*
X757496Y252500D01*
X757496Y277900D02*
X770704Y277900D01*
X770704Y227100D02*
X757496Y227100D01*
D17*
X250200Y338800D03*
X237500Y357850D03*
X224800Y338800D03*
D23*
X135800Y355200D03*
X116750Y342500D03*
X135800Y329800D03*
X185000Y356200D03*
X165950Y343500D03*
X185000Y330800D03*
X749000Y480900D03*
X749000Y557100D03*
D30*
X524941Y613941D03*
D31*
X471059Y560059D03*
D22*
X153900Y122000D03*
X230100Y122000D03*
X712900Y147000D03*
X789100Y147000D03*
D32*
X183000Y626000D03*
X183000Y526000D03*
D33*
X298118Y664000D02*
X314882Y664000D01*
X425118Y664000D02*
X441882Y664000D01*
D14*
X402000Y633400D03*
X402000Y582600D03*
X438000Y512400D03*
X438000Y461600D03*
D17*
X304200Y462000D03*
X405800Y462000D03*
D15*
X720800Y550000D03*
X619200Y550000D03*
D17*
X567600Y518000D03*
X618400Y518000D03*
D34*
X671020Y480180D02*
X640840Y450000D01*
X640000Y450000D01*
X635000Y445000D01*
X430000Y445000D01*
X429670Y445000D01*
X426000Y445000D01*
X373000Y392000D01*
X358000Y392000D01*
X335470Y414530D02*
X335470Y430800D01*
X335470Y414530D02*
X358000Y392000D01*
D35*
X821300Y288000D02*
X832000Y288000D01*
X850000Y270000D01*
X864800Y164800D02*
X821300Y164800D01*
X864800Y164800D02*
X870000Y170000D01*
D34*
X738600Y299800D02*
X728500Y299800D01*
X738600Y299800D02*
X749100Y310300D01*
X634500Y204500D02*
X629500Y204500D01*
X680000Y250000D02*
X680000Y280000D01*
X699800Y299800D01*
X728500Y299800D01*
X680000Y250000D02*
X634500Y204500D01*
X620220Y376220D02*
X620220Y403980D01*
X620220Y376220D02*
X593856Y349856D01*
X593856Y240144D01*
X629500Y204500D01*
X671020Y391020D02*
X671020Y403980D01*
X671020Y391020D02*
X616000Y336000D01*
X616000Y302000D01*
X622550Y295450D02*
X626900Y299800D01*
X622550Y295450D02*
X616000Y302000D01*
D36*
X712900Y147000D02*
X720000Y139900D01*
X720000Y111400D01*
D34*
X219500Y190500D02*
X219500Y200400D01*
X236000Y174000D02*
X286700Y174000D01*
X236000Y174000D02*
X219500Y190500D01*
X430100Y393600D02*
X439100Y402600D01*
X430100Y393600D02*
X416700Y393600D01*
X363700Y340600D01*
D37*
X376100Y600900D02*
X385100Y600900D01*
X425941Y560059D02*
X471059Y560059D01*
X425941Y560059D02*
X385100Y600900D01*
D36*
X471059Y560059D02*
X471059Y549941D01*
X529900Y491100D02*
X569300Y491100D01*
X529900Y491100D02*
X471059Y549941D01*
X569300Y491100D02*
X592000Y513800D01*
X592000Y522800D02*
X619200Y550000D01*
X592000Y522800D02*
X592000Y513800D01*
D38*
X402000Y582600D02*
X383700Y600900D01*
X376100Y600900D01*
D34*
X257200Y420000D02*
X221500Y384300D01*
X297000Y420000D02*
X309000Y408000D01*
X309000Y321000D01*
X289000Y301000D02*
X286700Y301000D01*
X297000Y420000D02*
X257200Y420000D01*
X309000Y321000D02*
X289000Y301000D01*
X250200Y338800D02*
X250200Y339200D01*
X254000Y343000D01*
X254000Y366000D01*
X231800Y374000D02*
X221500Y384300D01*
X246000Y374000D02*
X254000Y366000D01*
X246000Y374000D02*
X231800Y374000D01*
X595400Y663339D02*
X642989Y615750D01*
X595400Y663339D02*
X595400Y666400D01*
X302856Y139356D02*
X286700Y123200D01*
X335470Y314817D02*
X335470Y329200D01*
X335470Y314817D02*
X302856Y282203D01*
X302856Y139356D01*
X559400Y283700D02*
X560320Y284620D01*
X560320Y315720D01*
X173700Y17100D02*
X136000Y54800D01*
X136000Y103000D02*
X136000Y147800D01*
X136000Y103000D02*
X136000Y54800D01*
X201840Y77900D02*
X201840Y94160D01*
X193000Y103000D01*
X136000Y103000D01*
X313000Y135238D02*
X327106Y121132D01*
X313000Y247668D02*
X322785Y257453D01*
X313000Y247668D02*
X313000Y135238D01*
X322785Y257453D02*
X345785Y257453D01*
X414732Y326400D01*
X439100Y326400D01*
X150300Y162100D02*
X136000Y147800D01*
X150300Y162100D02*
X150476Y162276D01*
X150476Y168612D01*
X241932Y260068D01*
X439100Y326400D02*
X446400Y326400D01*
X535000Y341000D02*
X535000Y358000D01*
X535000Y341000D02*
X560280Y315720D01*
X560320Y315720D01*
X460000Y340000D02*
X446400Y326400D01*
X492000Y401000D02*
X535000Y358000D01*
X224800Y338800D02*
X190700Y372900D01*
X190700Y384300D01*
X241932Y321668D02*
X241932Y260068D01*
X241932Y321668D02*
X224800Y338800D01*
X471000Y401000D02*
X492000Y401000D01*
X460000Y390000D02*
X460000Y340000D01*
X460000Y390000D02*
X471000Y401000D01*
X559900Y349600D02*
X582712Y326788D01*
X582712Y246712D02*
X566000Y230000D01*
X562300Y230000D01*
X559400Y232900D01*
X582712Y246712D02*
X582712Y326788D01*
X584800Y385000D02*
X584800Y419100D01*
X584800Y385000D02*
X559900Y360100D01*
X559900Y349600D01*
X485200Y167700D02*
X486856Y166044D01*
X712911Y50000D02*
X717561Y45350D01*
X712911Y50000D02*
X640000Y50000D01*
X592000Y98000D01*
X535000Y98000D01*
X524000Y109000D02*
X509000Y109000D01*
X486856Y131144D02*
X486856Y166044D01*
X524000Y109000D02*
X535000Y98000D01*
X509000Y109000D02*
X486856Y131144D01*
X509100Y340900D02*
X509100Y349600D01*
X539700Y258300D02*
X559400Y258300D01*
X523000Y327000D02*
X509100Y340900D01*
X523000Y327000D02*
X523000Y275000D01*
X539700Y258300D01*
X509100Y349600D02*
X509100Y359100D01*
X483200Y385000D01*
X487700Y349600D02*
X509100Y349600D01*
X487700Y349600D02*
X439100Y301000D01*
X370280Y259448D02*
X370280Y99700D01*
X370280Y259448D02*
X400461Y289629D01*
X152980Y302000D02*
X133900Y282920D01*
X152980Y302000D02*
X219500Y302000D01*
X133900Y282920D02*
X133900Y254900D01*
X159300Y229500D01*
X159300Y223800D01*
X370280Y-1900D02*
X420956Y48776D01*
X420956Y85259D01*
X433497Y97800D02*
X439100Y97800D01*
X433497Y97800D02*
X420956Y85259D01*
D35*
X821300Y313400D02*
X863400Y313400D01*
X870000Y320000D01*
D36*
X749000Y480900D02*
X749000Y481000D01*
X721090Y508910D01*
X721090Y517700D01*
D34*
X733600Y414800D02*
X744800Y414800D01*
X779950Y449950D01*
X749000Y480900D01*
X238000Y436000D02*
X207000Y467000D01*
X207000Y496000D01*
X200304Y502696D01*
X146796Y502696D02*
X130100Y486000D01*
X146796Y502696D02*
X200304Y502696D01*
X354000Y380000D02*
X379000Y380000D01*
X298000Y436000D02*
X238000Y436000D01*
X298000Y436000D02*
X354000Y380000D01*
X379000Y380000D02*
X432000Y433000D01*
X643000Y433000D01*
X650000Y440000D01*
X708100Y440000D02*
X749000Y480900D01*
X708100Y440000D02*
X650000Y440000D01*
X304700Y545300D02*
X299900Y550100D01*
X304700Y545300D02*
X304700Y520700D01*
X299800Y626200D02*
X272690Y626200D01*
X299800Y626200D02*
X299900Y626300D01*
X299526Y600526D02*
X273500Y600526D01*
X299526Y600526D02*
X299900Y600900D01*
X376100Y550100D02*
X389200Y537000D01*
X440000Y537000D01*
X467700Y509300D02*
X467700Y491100D01*
X467700Y509300D02*
X440000Y537000D01*
X467700Y491100D02*
X467700Y461900D01*
X749100Y386500D02*
X773900Y386500D01*
X813500Y3500D02*
X621900Y3500D01*
X819161Y9161D02*
X819161Y45350D01*
X819161Y9161D02*
X813500Y3500D01*
X662700Y79700D02*
X647300Y79700D01*
X621900Y105100D01*
X617000Y110000D01*
X530000Y120000D02*
X530000Y200000D01*
X497100Y232900D01*
X483200Y232900D01*
X540000Y110000D02*
X617000Y110000D01*
X540000Y110000D02*
X530000Y120000D01*
X586100Y42900D02*
X586100Y9700D01*
X586100Y42900D02*
X586100Y52500D01*
X561100Y77500D01*
X537500Y77500D01*
X458388Y163612D02*
X458388Y248388D01*
X468300Y258300D02*
X483200Y258300D01*
X468300Y258300D02*
X458388Y248388D01*
X518000Y97000D02*
X537500Y77500D01*
X518000Y97000D02*
X502132Y97000D01*
X471000Y128132D01*
X471000Y151000D01*
X458388Y163612D01*
X457000Y139000D02*
X457000Y126200D01*
X447400Y148600D02*
X439100Y148600D01*
X447400Y148600D02*
X457000Y139000D01*
X510300Y35500D02*
X484500Y9700D01*
X510300Y35500D02*
X510300Y77500D01*
X505700Y77500D01*
X457000Y126200D01*
D35*
X821100Y190000D02*
X821300Y190200D01*
X821100Y190000D02*
X790000Y190000D01*
D34*
X185000Y330800D02*
X174929Y330800D01*
X158273Y314144D01*
X130777Y314144D02*
X116750Y328171D01*
X116750Y342500D01*
X130777Y314144D02*
X158273Y314144D01*
X116750Y371050D02*
X130100Y384400D01*
X116750Y371050D02*
X116750Y342500D01*
X615040Y170290D02*
X615040Y150110D01*
X605040Y140110D01*
X612450Y167700D02*
X615040Y170290D01*
X612450Y167700D02*
X586800Y167700D01*
X586800Y173200D01*
X559400Y200600D01*
X559400Y207500D01*
X586800Y167700D02*
X586800Y159900D01*
X562400Y135500D01*
X199100Y17100D02*
X199100Y3900D01*
X209000Y-6000D02*
X339000Y-6000D01*
X410000Y65000D01*
X209000Y-6000D02*
X199100Y3900D01*
X410000Y65000D02*
X410000Y107000D01*
X426200Y123200D02*
X439100Y123200D01*
X426200Y123200D02*
X410000Y107000D01*
X326575Y5712D02*
X265288Y5712D01*
X326575Y5712D02*
X399000Y78137D01*
X151040Y77900D02*
X151040Y75564D01*
X185604Y41000D01*
X230000Y41000D01*
X265288Y5712D01*
X399000Y78137D02*
X399000Y192922D01*
X398948Y192974D01*
X407274Y192974D01*
X439100Y224800D01*
X321788Y16856D02*
X271212Y16856D01*
X321788Y16856D02*
X388605Y83673D01*
X271212Y16856D02*
X236068Y52000D01*
X388605Y83673D02*
X388605Y161395D01*
X382000Y168000D01*
X382000Y200100D01*
X432100Y250200D01*
X439100Y250200D01*
X176440Y77900D02*
X176440Y70560D01*
X195000Y52000D01*
X236068Y52000D01*
X153900Y122000D02*
X173450Y141550D01*
X175700Y143800D01*
X175700Y162100D01*
X173450Y141550D02*
X212000Y103000D01*
X244000Y103000D01*
X254000Y93000D01*
X316276Y28725D02*
X350000Y62449D01*
X254000Y51849D02*
X254000Y93000D01*
X254000Y51849D02*
X277124Y28725D01*
X316276Y28725D01*
X350000Y152768D02*
X329718Y173050D01*
X350000Y152768D02*
X350000Y62449D01*
X728500Y268000D02*
X738000Y268000D01*
X747900Y277900D02*
X764100Y277900D01*
X747900Y277900D02*
X738000Y268000D01*
X646000Y287100D02*
X626900Y268000D01*
X646000Y325700D02*
X640560Y331140D01*
X646000Y325700D02*
X646000Y287100D01*
X708200Y378200D02*
X708200Y414800D01*
X661140Y331140D02*
X640560Y331140D01*
X661140Y331140D02*
X708200Y378200D01*
X739600Y227100D02*
X764100Y227100D01*
X739600Y227100D02*
X729500Y237200D01*
X645620Y383620D02*
X645620Y403980D01*
X604000Y248000D02*
X614800Y237200D01*
X627900Y237200D01*
X604000Y342000D02*
X645620Y383620D01*
X604000Y342000D02*
X604000Y248000D01*
X159900Y364300D02*
X159900Y384300D01*
X159900Y364300D02*
X160000Y364200D01*
X177000Y364200D02*
X185000Y356200D01*
X177000Y364200D02*
X160000Y364200D01*
X159900Y364300D02*
X150800Y355200D01*
X135800Y355200D01*
X224150Y357850D02*
X237500Y357850D01*
X224150Y357850D02*
X205000Y377000D01*
X205000Y436000D01*
X190700Y485900D02*
X159900Y485900D01*
X190700Y485900D02*
X190700Y450300D01*
X205000Y436000D01*
X276370Y505960D02*
X320000Y505960D01*
X276370Y505960D02*
X273370Y502960D01*
D37*
X243988Y526000D02*
X183000Y526000D01*
X243988Y526000D02*
X273370Y502960D01*
D34*
X320000Y505960D02*
X334740Y520700D01*
X406300Y520700D01*
X304200Y462000D02*
X273370Y492830D01*
X273370Y502960D01*
X363700Y443700D02*
X363700Y416800D01*
X382000Y462000D02*
X405800Y462000D01*
X382000Y462000D02*
X363700Y443700D01*
X405800Y462000D02*
X437600Y462000D01*
X438000Y461600D01*
D36*
X677190Y550000D02*
X720800Y550000D01*
X677190Y550000D02*
X644890Y517700D01*
X618700Y517700D01*
X618400Y518000D01*
D34*
X764100Y252500D02*
X790000Y252500D01*
X790000Y294200D01*
X802400Y338800D02*
X821300Y338800D01*
X740500Y204500D02*
X731100Y204500D01*
X813000Y215600D02*
X821300Y215600D01*
X746000Y210000D02*
X740500Y204500D01*
X813000Y215600D02*
X813000Y227000D01*
X790000Y250000D02*
X790000Y252500D01*
X790000Y250000D02*
X813000Y227000D01*
X821300Y215600D02*
X794600Y215600D01*
X789000Y210000D02*
X746000Y210000D01*
X789000Y210000D02*
X794600Y215600D01*
X773900Y310300D02*
X802400Y338800D01*
X773900Y310300D02*
X790000Y294200D01*
M02*
