G04 EAGLE Gerber RS-274X export*
G75*
%MOMM*%
%FSLAX34Y34*%
%LPD*%
%INBottom Solder Mask*%
%IPPOS*%
%AMOC8*
5,1,8,0,0,1.08239X$1,22.5*%
G01*
%ADD10C,2.303200*%
%ADD11P,1.951982X8X22.500000*%
%ADD12C,1.803400*%
%ADD13C,1.524000*%
%ADD14C,1.727200*%
%ADD15P,1.649562X8X292.500000*%
%ADD16P,1.649562X8X202.500000*%
%ADD17P,1.649562X8X67.500000*%
%ADD18P,1.649562X8X22.500000*%
%ADD19R,1.711200X1.711200*%
%ADD20C,1.711200*%
%ADD21R,1.727200X1.727200*%
%ADD22C,1.727200*%
%ADD23C,1.903200*%
%ADD24P,1.649562X8X112.500000*%
%ADD25P,1.951982X8X247.500000*%
%ADD26C,2.743200*%
%ADD27C,1.603200*%
%ADD28C,2.203200*%
%ADD29P,1.649562X8X247.500000*%
%ADD30P,2.969212X8X202.500000*%
%ADD31P,3.629037X8X67.500000*%
%ADD32C,3.352800*%
%ADD33P,2.969212X8X292.500000*%
%ADD34C,1.879600*%


D10*
X130000Y660000D03*
X130000Y10000D03*
X870000Y660000D03*
X870000Y10000D03*
D11*
X733600Y414800D03*
D12*
X708200Y414800D03*
D13*
X671020Y480180D02*
X671020Y493388D01*
X645620Y493388D02*
X645620Y480180D01*
X645620Y403980D02*
X645620Y390772D01*
X671020Y390772D02*
X671020Y403980D01*
X620220Y480180D02*
X620220Y493388D01*
X620220Y403980D02*
X620220Y390772D01*
D14*
X813680Y338800D02*
X828920Y338800D01*
X828920Y313400D02*
X813680Y313400D01*
X813680Y288000D02*
X828920Y288000D01*
X828920Y215600D02*
X813680Y215600D01*
X813680Y190200D02*
X828920Y190200D01*
X828920Y164800D02*
X813680Y164800D01*
D15*
X335470Y430800D03*
X335470Y329200D03*
D16*
X584800Y419100D03*
X483200Y419100D03*
X586800Y167700D03*
X485200Y167700D03*
D15*
X370280Y99700D03*
X370280Y-1900D03*
D17*
X328619Y217787D03*
X400461Y289629D03*
D16*
X729500Y237200D03*
X627900Y237200D03*
D18*
X483200Y385000D03*
X584800Y385000D03*
D15*
X595400Y666400D03*
X595400Y564800D03*
D16*
X728500Y299800D03*
X626900Y299800D03*
X728500Y268000D03*
X626900Y268000D03*
D19*
X286700Y402600D03*
D20*
X286700Y377200D03*
X286700Y351800D03*
X286700Y326400D03*
X286700Y301000D03*
X286700Y275600D03*
X286700Y250200D03*
X286700Y224800D03*
X286700Y199400D03*
X286700Y174000D03*
X286700Y148600D03*
X286700Y123200D03*
X286700Y97800D03*
X286700Y72400D03*
X286700Y47000D03*
X439100Y47000D03*
X439100Y72400D03*
X439100Y97800D03*
X439100Y123200D03*
X439100Y148600D03*
X439100Y174000D03*
X439100Y199400D03*
X439100Y224800D03*
X439100Y250200D03*
X439100Y275600D03*
X439100Y301000D03*
X439100Y326400D03*
X439100Y351800D03*
X439100Y377200D03*
X439100Y402600D03*
D21*
X299900Y626300D03*
D22*
X299900Y600900D03*
X299900Y575500D03*
X299900Y550100D03*
X376100Y550100D03*
X376100Y575500D03*
X376100Y600900D03*
X376100Y626300D03*
D23*
X644890Y517700D03*
X721090Y517700D03*
D13*
X723364Y331140D02*
X710156Y331140D01*
X647164Y331140D02*
X633956Y331140D01*
D18*
X304700Y520700D03*
X406300Y520700D03*
D16*
X405760Y491230D03*
X304160Y491230D03*
D24*
X272690Y626200D03*
X272690Y677000D03*
X273500Y549726D03*
X273500Y600526D03*
D18*
X467700Y491100D03*
X569300Y491100D03*
D16*
X569300Y461900D03*
X467700Y461900D03*
D25*
X255410Y485000D03*
D12*
X273370Y502960D03*
D26*
X823400Y620022D02*
X848800Y620022D01*
X848800Y394978D02*
X823400Y394978D01*
D27*
X133900Y223800D03*
X159300Y223800D03*
X184700Y223800D03*
D15*
X219500Y302000D03*
X219500Y200400D03*
D16*
X184700Y254900D03*
X133900Y254900D03*
X184700Y282920D03*
X133900Y282920D03*
D13*
X773900Y379896D02*
X773900Y393104D01*
X773900Y316904D02*
X773900Y303696D01*
X749100Y379896D02*
X749100Y393104D01*
X749100Y316904D02*
X749100Y303696D01*
X489804Y283700D02*
X476596Y283700D01*
X476596Y258300D02*
X489804Y258300D01*
X552796Y258300D02*
X566004Y258300D01*
X566004Y283700D02*
X552796Y283700D01*
X489804Y232900D02*
X476596Y232900D01*
X476596Y207500D02*
X489804Y207500D01*
X552796Y232900D02*
X566004Y232900D01*
X566004Y207500D02*
X552796Y207500D01*
D18*
X509100Y349600D03*
X559900Y349600D03*
D16*
X562400Y135500D03*
X511600Y135500D03*
D15*
X621900Y105100D03*
X621900Y3500D03*
D16*
X586100Y42900D03*
X484500Y42900D03*
D18*
X484500Y9700D03*
X586100Y9700D03*
X510300Y77500D03*
X561100Y77500D03*
D15*
X662700Y79700D03*
X662700Y28900D03*
D28*
X819161Y45350D03*
X768361Y45350D03*
X717561Y45350D03*
D15*
X159900Y485900D03*
X159900Y384300D03*
D24*
X130100Y384400D03*
X130100Y486000D03*
X190700Y384300D03*
X190700Y485900D03*
D15*
X221500Y485900D03*
X221500Y384300D03*
D16*
X560320Y315720D03*
X509520Y315720D03*
D28*
X642989Y615750D03*
X693789Y615750D03*
X744589Y615750D03*
D13*
X697844Y170290D02*
X684636Y170290D01*
X621644Y170290D02*
X608436Y170290D01*
X611644Y140110D02*
X598436Y140110D01*
X674636Y140110D02*
X687844Y140110D01*
D14*
X173700Y24720D02*
X173700Y9480D01*
X199100Y9480D02*
X199100Y24720D01*
X224500Y24720D02*
X224500Y9480D01*
X151040Y70280D02*
X151040Y85520D01*
X176440Y85520D02*
X176440Y70280D01*
X201840Y70280D02*
X201840Y85520D01*
X227240Y85520D02*
X227240Y70280D01*
D29*
X394627Y329295D03*
X322785Y257453D03*
X398948Y192974D03*
X327106Y121132D03*
D14*
X150300Y154480D02*
X150300Y169720D01*
X175700Y169720D02*
X175700Y154480D01*
X201100Y154480D02*
X201100Y169720D01*
D17*
X329718Y173050D03*
X401560Y244892D03*
D18*
X629500Y204500D03*
X731100Y204500D03*
D13*
X363700Y410196D02*
X363700Y423404D01*
X363700Y347204D02*
X363700Y333996D01*
D30*
X720000Y111400D03*
X839900Y111400D03*
D13*
X770704Y252500D02*
X757496Y252500D01*
X757496Y277900D02*
X770704Y277900D01*
X770704Y227100D02*
X757496Y227100D01*
D18*
X250200Y338800D03*
X237500Y357850D03*
X224800Y338800D03*
D24*
X135800Y355200D03*
X116750Y342500D03*
X135800Y329800D03*
X185000Y356200D03*
X165950Y343500D03*
X185000Y330800D03*
X749000Y480900D03*
X749000Y557100D03*
D31*
X524941Y613941D03*
D32*
X471059Y560059D03*
D23*
X153900Y122000D03*
X230100Y122000D03*
X712900Y147000D03*
X789100Y147000D03*
D33*
X183000Y626000D03*
X183000Y526000D03*
D34*
X298118Y664000D02*
X314882Y664000D01*
X425118Y664000D02*
X441882Y664000D01*
D15*
X402000Y633400D03*
X402000Y582600D03*
X438000Y512400D03*
X438000Y461600D03*
D18*
X304200Y462000D03*
X405800Y462000D03*
D16*
X720800Y550000D03*
X619200Y550000D03*
D18*
X567600Y518000D03*
X618400Y518000D03*
M02*
